<mxfile host="app.diagrams.net" modified="2020-09-14T08:57:04.256Z" agent="5.0 (Windows NT 10.0; Win64; x64) AppleWebKit/537.36 (KHTML, like Gecko) Chrome/85.0.4183.102 Safari/537.36" etag="S43aqteI8yAzZVphnZat" version="13.6.6" type="github">
  <diagram id="7Rsvs0vOTl0MpOckWxuK" name="Page-1">
    <mxGraphModel dx="1422" dy="1862" grid="1" gridSize="10" guides="1" tooltips="1" connect="1" arrows="1" fold="1" page="1" pageScale="1" pageWidth="850" pageHeight="1100" math="0" shadow="0">
      <root>
        <mxCell id="0" />
        <mxCell id="1" parent="0" />
        <mxCell id="sPtuqEH-0CU76L_9MhWu-2" value="Direct method" style="rounded=0;whiteSpace=wrap;html=1;" parent="1" vertex="1">
          <mxGeometry x="220" y="-30" width="100" height="60" as="geometry" />
        </mxCell>
        <mxCell id="sPtuqEH-0CU76L_9MhWu-9" value="&lt;b&gt;AGB maps time series&lt;br&gt;&lt;br&gt;&amp;nbsp;regional&lt;/b&gt;" style="rounded=1;whiteSpace=wrap;html=1;fillColor=#f5f5f5;strokeColor=#666666;fontColor=#333333;" parent="1" vertex="1">
          <mxGeometry x="555" y="-160" width="130" height="50" as="geometry" />
        </mxCell>
        <mxCell id="sPtuqEH-0CU76L_9MhWu-11" value="Indirect method&lt;br&gt;" style="rounded=0;whiteSpace=wrap;html=1;" parent="1" vertex="1">
          <mxGeometry x="445" y="-30" width="105" height="60" as="geometry" />
        </mxCell>
        <mxCell id="sPtuqEH-0CU76L_9MhWu-58" style="edgeStyle=orthogonalEdgeStyle;rounded=0;orthogonalLoop=1;jettySize=auto;html=1;exitX=0.5;exitY=0;exitDx=0;exitDy=0;entryX=0;entryY=0.5;entryDx=0;entryDy=0;" parent="1" source="sPtuqEH-0CU76L_9MhWu-14" target="sPtuqEH-0CU76L_9MhWu-49" edge="1">
          <mxGeometry relative="1" as="geometry" />
        </mxCell>
        <mxCell id="PQNr4_TIdTEO0NgWRt0n-8" style="edgeStyle=orthogonalEdgeStyle;rounded=0;orthogonalLoop=1;jettySize=auto;html=1;exitX=0.5;exitY=1;exitDx=0;exitDy=0;entryX=0;entryY=0.5;entryDx=0;entryDy=0;endArrow=none;endFill=0;" edge="1" parent="1" source="sPtuqEH-0CU76L_9MhWu-14" target="sPtuqEH-0CU76L_9MhWu-43">
          <mxGeometry relative="1" as="geometry" />
        </mxCell>
        <mxCell id="sPtuqEH-0CU76L_9MhWu-14" value="&lt;b&gt;Global forest change data (2000-2018)&lt;/b&gt;" style="rounded=1;whiteSpace=wrap;html=1;fillColor=#f5f5f5;strokeColor=#666666;fontColor=#333333;" parent="1" vertex="1">
          <mxGeometry x="120" y="-250" width="90" height="50" as="geometry" />
        </mxCell>
        <mxCell id="sPtuqEH-0CU76L_9MhWu-15" style="edgeStyle=orthogonalEdgeStyle;rounded=0;orthogonalLoop=1;jettySize=auto;html=1;exitX=0.5;exitY=1;exitDx=0;exitDy=0;entryX=1;entryY=0.5;entryDx=0;entryDy=0;" parent="1" source="sPtuqEH-0CU76L_9MhWu-16" target="sPtuqEH-0CU76L_9MhWu-21" edge="1">
          <mxGeometry relative="1" as="geometry" />
        </mxCell>
        <mxCell id="sPtuqEH-0CU76L_9MhWu-16" value="&lt;b&gt;FRA data&lt;br&gt;&lt;/b&gt;&lt;br&gt;2000 2010 2015" style="rounded=1;whiteSpace=wrap;html=1;fillColor=#f5f5f5;strokeColor=#666666;fontColor=#333333;" parent="1" vertex="1">
          <mxGeometry x="730" y="360" width="110" height="60" as="geometry" />
        </mxCell>
        <mxCell id="sPtuqEH-0CU76L_9MhWu-17" style="edgeStyle=orthogonalEdgeStyle;rounded=0;orthogonalLoop=1;jettySize=auto;html=1;exitX=0.5;exitY=1;exitDx=0;exitDy=0;entryX=0;entryY=0.5;entryDx=0;entryDy=0;" parent="1" source="sPtuqEH-0CU76L_9MhWu-18" target="sPtuqEH-0CU76L_9MhWu-21" edge="1">
          <mxGeometry relative="1" as="geometry">
            <mxPoint x="355" y="560" as="targetPoint" />
          </mxGeometry>
        </mxCell>
        <mxCell id="sPtuqEH-0CU76L_9MhWu-18" value="Uncertainty (re)estimation&lt;br&gt;&lt;br&gt;Spatial auto-correlation&lt;br&gt;Temporal auto-correlation" style="rounded=0;whiteSpace=wrap;html=1;" parent="1" vertex="1">
          <mxGeometry x="280" y="480" width="150" height="70" as="geometry" />
        </mxCell>
        <mxCell id="sPtuqEH-0CU76L_9MhWu-19" value="Multi-date AGB and AGB change comparisons&lt;br&gt;&lt;br&gt;coarse pixels, regions, continents, activity data&lt;br&gt;&lt;br&gt;annual, 5-year" style="rounded=1;whiteSpace=wrap;html=1;fillColor=#dae8fc;strokeColor=#6c8ebf;" parent="1" vertex="1">
          <mxGeometry x="370" y="680" width="170" height="110" as="geometry" />
        </mxCell>
        <mxCell id="sPtuqEH-0CU76L_9MhWu-20" style="edgeStyle=orthogonalEdgeStyle;rounded=0;orthogonalLoop=1;jettySize=auto;html=1;exitX=0.5;exitY=1;exitDx=0;exitDy=0;" parent="1" source="sPtuqEH-0CU76L_9MhWu-21" target="sPtuqEH-0CU76L_9MhWu-19" edge="1">
          <mxGeometry relative="1" as="geometry" />
        </mxCell>
        <mxCell id="sPtuqEH-0CU76L_9MhWu-21" value="STOCK DIFFERENCE METHOD" style="rounded=0;whiteSpace=wrap;html=1;fontStyle=1;strokeWidth=3;" parent="1" vertex="1">
          <mxGeometry x="400" y="590" width="110" height="60" as="geometry" />
        </mxCell>
        <mxCell id="sPtuqEH-0CU76L_9MhWu-24" value="Plot harmonization&lt;br&gt;&lt;br&gt;Forest area scaling&lt;br&gt;Temporal adjustment&lt;br&gt;Weighted AGB" style="rounded=0;whiteSpace=wrap;html=1;" parent="1" vertex="1">
          <mxGeometry x="555" y="-610" width="130" height="70" as="geometry" />
        </mxCell>
        <mxCell id="sPtuqEH-0CU76L_9MhWu-57" style="edgeStyle=orthogonalEdgeStyle;rounded=0;orthogonalLoop=1;jettySize=auto;html=1;exitX=0.5;exitY=1;exitDx=0;exitDy=0;entryX=0;entryY=0.5;entryDx=0;entryDy=0;" parent="1" source="sPtuqEH-0CU76L_9MhWu-26" target="sPtuqEH-0CU76L_9MhWu-49" edge="1">
          <mxGeometry relative="1" as="geometry" />
        </mxCell>
        <mxCell id="sPtuqEH-0CU76L_9MhWu-26" value="&lt;b&gt;Plot data single-date&lt;/b&gt;" style="rounded=1;whiteSpace=wrap;html=1;fillColor=#f5f5f5;strokeColor=#666666;fontColor=#333333;" parent="1" vertex="1">
          <mxGeometry x="115" y="-370" width="100" height="60" as="geometry" />
        </mxCell>
        <mxCell id="sPtuqEH-0CU76L_9MhWu-28" value="AGB change with confidence" style="rounded=1;whiteSpace=wrap;html=1;fillColor=#ffe6cc;strokeColor=#d79b00;" parent="1" vertex="1">
          <mxGeometry x="340" y="160" width="125" height="70" as="geometry" />
        </mxCell>
        <mxCell id="PQNr4_TIdTEO0NgWRt0n-9" style="edgeStyle=orthogonalEdgeStyle;rounded=0;orthogonalLoop=1;jettySize=auto;html=1;exitX=0.5;exitY=0;exitDx=0;exitDy=0;entryX=0;entryY=0.5;entryDx=0;entryDy=0;endArrow=classic;endFill=1;" edge="1" parent="1" source="sPtuqEH-0CU76L_9MhWu-36" target="sPtuqEH-0CU76L_9MhWu-43">
          <mxGeometry relative="1" as="geometry" />
        </mxCell>
        <mxCell id="sPtuqEH-0CU76L_9MhWu-36" value="&lt;b style=&quot;color: rgb(51 , 51 , 51) ; font-family: &amp;#34;helvetica&amp;#34; ; font-size: 12px ; font-style: normal ; letter-spacing: normal ; text-align: center ; text-indent: 0px ; text-transform: none ; word-spacing: 0px ; background-color: rgb(248 , 249 , 250)&quot;&gt;Plot data multi-date&lt;/b&gt;" style="rounded=1;whiteSpace=wrap;html=1;fillColor=#f5f5f5;strokeColor=#666666;fontColor=#333333;" parent="1" vertex="1">
          <mxGeometry x="115" y="-125" width="100" height="50" as="geometry" />
        </mxCell>
        <mxCell id="sPtuqEH-0CU76L_9MhWu-38" value="Total biomass net loss plot data" style="rounded=0;whiteSpace=wrap;html=1;" parent="1" vertex="1">
          <mxGeometry x="600" y="-70" width="100" height="60" as="geometry" />
        </mxCell>
        <mxCell id="sPtuqEH-0CU76L_9MhWu-40" value="Multi-date?" style="text;html=1;strokeColor=none;fillColor=none;align=center;verticalAlign=middle;whiteSpace=wrap;rounded=0;" parent="1" vertex="1">
          <mxGeometry x="440" y="-670" width="100" height="20" as="geometry" />
        </mxCell>
        <mxCell id="sPtuqEH-0CU76L_9MhWu-42" value="No" style="text;html=1;strokeColor=none;fillColor=none;align=center;verticalAlign=middle;whiteSpace=wrap;rounded=0;" parent="1" vertex="1">
          <mxGeometry x="600" y="-640" width="40" height="20" as="geometry" />
        </mxCell>
        <mxCell id="sPtuqEH-0CU76L_9MhWu-43" value="Regional multi-date AGB mapping" style="rounded=0;whiteSpace=wrap;html=1;" parent="1" vertex="1">
          <mxGeometry x="320" y="-195" width="130" height="70" as="geometry" />
        </mxCell>
        <mxCell id="sPtuqEH-0CU76L_9MhWu-44" value="Yes" style="text;html=1;strokeColor=none;fillColor=none;align=center;verticalAlign=middle;whiteSpace=wrap;rounded=0;" parent="1" vertex="1">
          <mxGeometry x="355" y="-640" width="40" height="20" as="geometry" />
        </mxCell>
        <mxCell id="sPtuqEH-0CU76L_9MhWu-59" style="edgeStyle=orthogonalEdgeStyle;rounded=0;orthogonalLoop=1;jettySize=auto;html=1;exitX=0.5;exitY=1;exitDx=0;exitDy=0;entryX=1;entryY=0.5;entryDx=0;entryDy=0;" parent="1" source="sPtuqEH-0CU76L_9MhWu-47" target="sPtuqEH-0CU76L_9MhWu-49" edge="1">
          <mxGeometry relative="1" as="geometry" />
        </mxCell>
        <mxCell id="sPtuqEH-0CU76L_9MhWu-47" value="&lt;b&gt;AGB maps time series &lt;br&gt;coarse resolution&lt;br&gt;&lt;br&gt;global&lt;br&gt;&lt;/b&gt;" style="rounded=1;whiteSpace=wrap;html=1;fillColor=#f5f5f5;strokeColor=#666666;fontColor=#333333;" parent="1" vertex="1">
          <mxGeometry x="550" y="-370" width="140" height="60" as="geometry" />
        </mxCell>
        <mxCell id="sPtuqEH-0CU76L_9MhWu-60" style="edgeStyle=orthogonalEdgeStyle;rounded=0;orthogonalLoop=1;jettySize=auto;html=1;exitX=0.5;exitY=0;exitDx=0;exitDy=0;entryX=1;entryY=0.5;entryDx=0;entryDy=0;" parent="1" source="sPtuqEH-0CU76L_9MhWu-48" target="sPtuqEH-0CU76L_9MhWu-49" edge="1">
          <mxGeometry relative="1" as="geometry" />
        </mxCell>
        <mxCell id="sPtuqEH-0CU76L_9MhWu-48" value="&lt;b&gt;AGB maps multi-date &lt;br&gt;fine resolution&lt;br&gt;&lt;br&gt;global&lt;br&gt;&lt;/b&gt;" style="rounded=1;whiteSpace=wrap;html=1;fillColor=#f5f5f5;strokeColor=#666666;fontColor=#333333;" parent="1" vertex="1">
          <mxGeometry x="555" y="-255" width="130" height="60" as="geometry" />
        </mxCell>
        <mxCell id="sPtuqEH-0CU76L_9MhWu-49" value="Plot harmonization, plot-to-map comparison, bias and precision correction" style="rounded=0;whiteSpace=wrap;html=1;" parent="1" vertex="1">
          <mxGeometry x="320" y="-320" width="130" height="70" as="geometry" />
        </mxCell>
        <mxCell id="PQNr4_TIdTEO0NgWRt0n-4" value="gain-loss" style="text;html=1;strokeColor=none;fillColor=none;align=center;verticalAlign=middle;whiteSpace=wrap;rounded=0;" vertex="1" parent="1">
          <mxGeometry x="150" y="-190" width="90" height="20" as="geometry" />
        </mxCell>
        <mxCell id="PQNr4_TIdTEO0NgWRt0n-5" value="gain-loss" style="text;html=1;strokeColor=none;fillColor=none;align=center;verticalAlign=middle;whiteSpace=wrap;rounded=0;" vertex="1" parent="1">
          <mxGeometry x="210" y="-310" width="90" height="20" as="geometry" />
        </mxCell>
      </root>
    </mxGraphModel>
  </diagram>
</mxfile>
